<?xml version="1.0" encoding="UTF-8" standalone="no"?>
<!-- Generator: Adobe Illustrator 22.1.0, SVG Export Plug-In . SVG Version: 6.00 Build 0)  -->

<svg
   version="1.1"
   id="レイヤー_1"
   x="0px"
   y="0px"
   viewBox="0 0 303 300"
   style="enable-background:new 0 0 303 300;"
   xml:space="preserve"
   sodipodi:docname="favicon.svg"
   inkscape:version="1.2 (dc2aedaf03, 2022-05-15)"
   xmlns:inkscape="http://www.inkscape.org/namespaces/inkscape"
   xmlns:sodipodi="http://sodipodi.sourceforge.net/DTD/sodipodi-0.dtd"
   xmlns:xlink="http://www.w3.org/1999/xlink"
   xmlns="http://www.w3.org/2000/svg"
   xmlns:svg="http://www.w3.org/2000/svg"><defs
   id="defs11"><linearGradient
     inkscape:collect="always"
     id="linearGradient2455"><stop
       style="stop-color:#ffa800;stop-opacity:1;"
       offset="0"
       id="stop2451" /><stop
       style="stop-color:#ffe45f;stop-opacity:1;"
       offset="1"
       id="stop2453" /></linearGradient><linearGradient
     inkscape:collect="always"
     id="linearGradient871"><stop
       style="stop-color:#47caff;stop-opacity:1;"
       offset="0"
       id="stop867" /><stop
       style="stop-color:#bd34fe;stop-opacity:1;"
       offset="1"
       id="stop869" /></linearGradient><linearGradient
     inkscape:collect="always"
     xlink:href="#linearGradient871"
     id="linearGradient873"
     x1="32.482796"
     y1="133.37857"
     x2="158.47079"
     y2="276.03088"
     gradientUnits="userSpaceOnUse" /><linearGradient
     inkscape:collect="always"
     xlink:href="#linearGradient2455"
     id="linearGradient2457"
     x1="69.35186"
     y1="169.39381"
     x2="343.03912"
     y2="63.119019"
     gradientUnits="userSpaceOnUse" /></defs><sodipodi:namedview
   id="namedview9"
   pagecolor="#ffffff"
   bordercolor="#000000"
   borderopacity="0.25"
   inkscape:showpageshadow="2"
   inkscape:pageopacity="0.0"
   inkscape:pagecheckerboard="0"
   inkscape:deskcolor="#d1d1d1"
   showgrid="false"
   inkscape:zoom="1.395"
   inkscape:cx="-62.365591"
   inkscape:cy="169.53405"
   inkscape:window-width="1920"
   inkscape:window-height="1015"
   inkscape:window-x="0"
   inkscape:window-y="0"
   inkscape:window-maximized="1"
   inkscape:current-layer="レイヤー_1" />
<style
   type="text/css"
   id="style2">
	.st0{fill:#DC2525;}
	.st1{fill:#3E3A39;}
</style>
<path
   class="st0"
   d="M137.4,199.6c1.9,12.8-2,26.2-11.8,36c-16.5,16.5-43.2,16.5-59.7,0c-16.5-16.5-16.5-43.2,0-59.7  c9.8-9.8,23.3-13.7,36-11.8l40.4-40.4c-36-20.4-82.7-15.3-113.4,15.3c-36.8,36.8-36.8,96.7,0,133.5c36.8,36.8,96.7,36.8,133.5,0  c30.7-30.7,35.8-77.3,15.3-113.4L137.4,199.6z"
   id="path4"
   style="fill:url(#linearGradient873);fill-opacity:1" />
<path
   class="st1"
   d="M301.6,50.7l-50.8,0l0-50.8L188.7,62l0,32.3L86.5,196.5c-5.1,5.1-5.1,13.4,0,18.5c5.1,5.1,13.4,5.1,18.5,0  l102.2-102.2l32.3,0L301.6,50.7z"
   id="path6"
   style="fill-opacity:1;fill:url(#linearGradient2457);stroke:none;stroke-opacity:0.43529412" />
</svg>
